# xmcd
#
# Track frame offsets: 
#        150
#        12291
#        26521
#        39507
#        53059
#        66956
#        80933
#        94047
#        107119
#        119794
#        133878
#        145848
#        159189
#        173094
#        185732
#        197954
#        210608
#        223797
#        238033
#        251331
#        266145
#        281052
#        293663
#        308388
#        323356
#
# Disc length: 4481 seconds
#
# Revision: 2
# Processed by: cddbd v1.5.2PL0 Copyright (c) Steve Scherf et al.
# Submitted via: ExactAudioCopy v0.95b3
#
DISCID=75117f19
DTITLE=The Carter Family - The Carter Family 1927-1934 [CDC
DYEAR=2002
DGENRE=Country
TTITLE0=Lonesome Valley
TTITLE1=On the Rock Where Moses Stood
TTITLE2=Room In Heaven For Me
TTITLE3=Lonesome Pine Special
TTITLE4=No More the Moon Shines On Lorena
TTITLE5=On My Way To Canaan's Land
TTITLE6=Where Shall I Be
TTITLE7=Sow 'Em On the Mountain
TTITLE8=Darling Nellie Across the Sea
TTITLE9=The Birds Were Singing Of You
TTITLE10=Weary Prodigal Son
TTITLE11=My Old Cottage Home
TTITLE12=When I'm Gone
TTITLE13=Sunshine In the Mountain
TTITLE14=Let the Church Roll On
TTITLE15=Lonesome For You
TTITLE16=Can't Feel At Home
TTITLE17=Why There's A Tear In My Eye
TTITLE18=The Wonderful City
TTITLE19=Jimmie Rodgers Visits the Carter Family
TTITLE20=The Carter Family and Jimmie Rodgers In Texas
TTITLE21='Mid The Green Fields Of Virginia
TTITLE22=Happiest Days Of All
TTITLE23=Picture On the Wall
TTITLE24=Amber Tresses
EXTD=
EXTT0=
EXTT1=
EXTT2=
EXTT3=
EXTT4=
EXTT5=
EXTT6=
EXTT7=
EXTT8=
EXTT9=
EXTT10=
EXTT11=
EXTT12=
EXTT13=
EXTT14=
EXTT15=
EXTT16=
EXTT17=
EXTT18=
EXTT19=
EXTT20=
EXTT21=
EXTT22=
EXTT23=
EXTT24=
PLAYORDER=
